<mxfile host="app.diagrams.net" modified="2023-07-17T17:04:59.955Z" agent="Mozilla/5.0 (Macintosh; Intel Mac OS X 10_15_7) AppleWebKit/537.36 (KHTML, like Gecko) Chrome/114.0.0.0 Safari/537.36" etag="UyT7N73EafcVfnF83tVr" version="21.5.2" type="device">
  <diagram name="Page-1" id="wmG6LJdkqQHtngS7ohM_">
    <mxGraphModel dx="4043" dy="2059" grid="1" gridSize="10" guides="1" tooltips="1" connect="1" arrows="1" fold="1" page="1" pageScale="1" pageWidth="827" pageHeight="1169" math="0" shadow="0">
      <root>
        <mxCell id="0" />
        <mxCell id="1" parent="0" />
        <mxCell id="S1jGFgNhS4szwYR1rYNL-200" value="" style="group;container=0;fillColor=default;movable=1;resizable=1;rotatable=1;deletable=1;editable=1;locked=0;connectable=1;strokeColor=default;" parent="1" vertex="1" connectable="0">
          <mxGeometry x="-2430" y="-370" width="1180" height="1340" as="geometry" />
        </mxCell>
        <mxCell id="S1jGFgNhS4szwYR1rYNL-52" value="" style="rounded=0;whiteSpace=wrap;html=1;fillColor=#1ba1e2;strokeColor=#000000;fontColor=#ffffff;opacity=80;" parent="1" vertex="1">
          <mxGeometry x="-2430" y="-764" width="1180" height="370" as="geometry" />
        </mxCell>
        <mxCell id="S1jGFgNhS4szwYR1rYNL-33" value="" style="group;fillColor=#8AA3BA;strokeColor=#314354;fontColor=#ffffff;container=0;" parent="1" vertex="1" connectable="0">
          <mxGeometry x="-2430" y="-1160" width="1180" height="370" as="geometry" />
        </mxCell>
        <mxCell id="S1jGFgNhS4szwYR1rYNL-37" value="" style="group;strokeWidth=8;" parent="1" vertex="1" connectable="0">
          <mxGeometry x="-2380" y="-640" width="90" height="110" as="geometry" />
        </mxCell>
        <mxCell id="S1jGFgNhS4szwYR1rYNL-38" value="" style="shape=note;whiteSpace=wrap;html=1;backgroundOutline=1;darkOpacity=0.05;strokeWidth=3;" parent="S1jGFgNhS4szwYR1rYNL-37" vertex="1">
          <mxGeometry width="80" height="100" as="geometry" />
        </mxCell>
        <mxCell id="S1jGFgNhS4szwYR1rYNL-39" value="&lt;font style=&quot;font-size: 16px;&quot;&gt;fasta&lt;/font&gt;" style="shape=note;whiteSpace=wrap;html=1;backgroundOutline=1;darkOpacity=0.05;strokeWidth=3;" parent="S1jGFgNhS4szwYR1rYNL-37" vertex="1">
          <mxGeometry x="10" y="10" width="80" height="100" as="geometry" />
        </mxCell>
        <mxCell id="S1jGFgNhS4szwYR1rYNL-40" value="&lt;font style=&quot;font-size: 16px;&quot;&gt;Divide test and train subsets&lt;br&gt;&lt;b&gt;(python)&lt;/b&gt;&lt;/font&gt;" style="rounded=1;whiteSpace=wrap;html=1;" parent="1" vertex="1">
          <mxGeometry x="-2030" y="-615" width="170" height="70" as="geometry" />
        </mxCell>
        <mxCell id="S1jGFgNhS4szwYR1rYNL-41" style="edgeStyle=orthogonalEdgeStyle;rounded=0;orthogonalLoop=1;jettySize=auto;html=1;entryX=0;entryY=0.5;entryDx=0;entryDy=0;" parent="1" source="S1jGFgNhS4szwYR1rYNL-39" target="S1jGFgNhS4szwYR1rYNL-40" edge="1">
          <mxGeometry relative="1" as="geometry" />
        </mxCell>
        <mxCell id="S1jGFgNhS4szwYR1rYNL-42" value="&lt;b style=&quot;border-color: var(--border-color);&quot;&gt;&amp;nbsp;n times&amp;nbsp;&lt;/b&gt;" style="text;html=1;strokeColor=none;fillColor=none;align=center;verticalAlign=middle;whiteSpace=wrap;rounded=0;fontSize=16;labelBackgroundColor=default;spacingTop=2;spacingBottom=2;spacingLeft=2;spacingRight=2;" parent="1" vertex="1">
          <mxGeometry x="-1987.5" y="-655" width="85" height="30" as="geometry" />
        </mxCell>
        <mxCell id="S1jGFgNhS4szwYR1rYNL-46" value="" style="shape=curlyBracket;whiteSpace=wrap;html=1;rounded=1;flipH=1;labelPosition=right;verticalLabelPosition=middle;align=left;verticalAlign=middle;strokeWidth=4;" parent="1" vertex="1">
          <mxGeometry x="-1870" y="-720" width="70" height="275" as="geometry" />
        </mxCell>
        <mxCell id="S1jGFgNhS4szwYR1rYNL-47" value="" style="group;strokeColor=none;strokeWidth=1;" parent="1" vertex="1" connectable="0">
          <mxGeometry x="-1610" y="-735" width="90" height="110" as="geometry" />
        </mxCell>
        <mxCell id="S1jGFgNhS4szwYR1rYNL-48" value="" style="shape=note;whiteSpace=wrap;html=1;backgroundOutline=1;darkOpacity=0.05;strokeColor=#006633;strokeWidth=4;" parent="S1jGFgNhS4szwYR1rYNL-47" vertex="1">
          <mxGeometry width="80" height="100" as="geometry" />
        </mxCell>
        <mxCell id="S1jGFgNhS4szwYR1rYNL-49" value="&lt;font style=&quot;font-size: 16px;&quot;&gt;multiple&lt;br&gt;.csv&lt;br&gt;&lt;/font&gt;" style="shape=note;whiteSpace=wrap;html=1;backgroundOutline=1;darkOpacity=0.05;strokeWidth=4;strokeColor=#006633;" parent="S1jGFgNhS4szwYR1rYNL-47" vertex="1">
          <mxGeometry x="10" y="10" width="80" height="100" as="geometry" />
        </mxCell>
        <mxCell id="S1jGFgNhS4szwYR1rYNL-50" value="&lt;font style=&quot;font-size: 16px;&quot;&gt;single.csv&lt;br&gt;&lt;/font&gt;" style="shape=note;whiteSpace=wrap;html=1;backgroundOutline=1;darkOpacity=0.05;strokeColor=#006633;strokeWidth=4;" parent="1" vertex="1">
          <mxGeometry x="-1610" y="-545" width="80" height="96" as="geometry" />
        </mxCell>
        <mxCell id="S1jGFgNhS4szwYR1rYNL-51" value="&lt;b style=&quot;font-size: 22px;&quot;&gt;&lt;font style=&quot;font-size: 22px;&quot;&gt;or&lt;/font&gt;&lt;/b&gt;" style="text;html=1;strokeColor=none;fillColor=none;align=center;verticalAlign=middle;whiteSpace=wrap;rounded=0;fontSize=22;" parent="1" vertex="1">
          <mxGeometry x="-1600" y="-600" width="60" height="30" as="geometry" />
        </mxCell>
        <mxCell id="S1jGFgNhS4szwYR1rYNL-53" value="&lt;font style=&quot;font-size: 39px;&quot; color=&quot;#ffffff&quot;&gt;# 2&lt;/font&gt;" style="ellipse;whiteSpace=wrap;html=1;aspect=fixed;fillColor=#000000;" parent="1" vertex="1">
          <mxGeometry x="-1370" y="-625" width="80" height="80" as="geometry" />
        </mxCell>
        <mxCell id="S1jGFgNhS4szwYR1rYNL-58" value="&lt;font style=&quot;font-size: 16px;&quot;&gt;&lt;b&gt;train subset&lt;/b&gt;&lt;/font&gt;" style="shape=datastore;whiteSpace=wrap;html=1;fillColor=#CFCFCF;fontColor=#333333;strokeColor=#666666;" parent="1" vertex="1">
          <mxGeometry x="-2390" y="-250" width="80" height="80" as="geometry" />
        </mxCell>
        <mxCell id="S1jGFgNhS4szwYR1rYNL-59" value="&lt;span style=&quot;font-size: 16px;&quot;&gt;&lt;b&gt;test subset&lt;/b&gt;&lt;/span&gt;" style="shape=datastore;whiteSpace=wrap;html=1;fillColor=#CFCFCF;fontColor=#333333;strokeColor=#666666;" parent="1" vertex="1">
          <mxGeometry x="-2390" y="-130" width="80" height="80" as="geometry" />
        </mxCell>
        <mxCell id="S1jGFgNhS4szwYR1rYNL-69" value="" style="shape=curlyBracket;whiteSpace=wrap;html=1;rounded=1;flipH=1;labelPosition=right;verticalLabelPosition=middle;align=left;verticalAlign=middle;strokeWidth=4;" parent="1" vertex="1">
          <mxGeometry x="-2290" y="-250" width="20" height="200" as="geometry" />
        </mxCell>
        <mxCell id="S1jGFgNhS4szwYR1rYNL-74" value="&lt;font style=&quot;font-size: 39px;&quot; color=&quot;#ffffff&quot;&gt;# 3&lt;/font&gt;" style="ellipse;whiteSpace=wrap;html=1;aspect=fixed;fillColor=#000000;" parent="1" vertex="1">
          <mxGeometry x="-1409.6" y="-320" width="80" height="80" as="geometry" />
        </mxCell>
        <mxCell id="S1jGFgNhS4szwYR1rYNL-75" value="&lt;b style=&quot;border-color: var(--border-color);&quot;&gt;Each set&lt;/b&gt;" style="text;html=1;strokeColor=none;fillColor=none;align=center;verticalAlign=middle;whiteSpace=wrap;rounded=0;fontSize=16;labelBackgroundColor=default;spacingTop=2;spacingBottom=2;spacingLeft=2;spacingRight=2;" parent="1" vertex="1">
          <mxGeometry x="-2392.5" y="-290" width="85" height="30" as="geometry" />
        </mxCell>
        <mxCell id="S1jGFgNhS4szwYR1rYNL-102" value="" style="group" parent="1" vertex="1" connectable="0">
          <mxGeometry x="-2220" y="-230" width="512.5" height="138" as="geometry" />
        </mxCell>
        <mxCell id="S1jGFgNhS4szwYR1rYNL-76" value="&lt;b style=&quot;border-color: var(--border-color);&quot;&gt;Process 1&lt;/b&gt;" style="text;html=1;strokeColor=none;fillColor=none;align=center;verticalAlign=middle;whiteSpace=wrap;rounded=0;fontSize=16;labelBackgroundColor=default;spacingTop=2;spacingBottom=2;spacingLeft=2;spacingRight=2;" parent="S1jGFgNhS4szwYR1rYNL-102" vertex="1">
          <mxGeometry x="185" width="85" height="30" as="geometry" />
        </mxCell>
        <mxCell id="S1jGFgNhS4szwYR1rYNL-77" value="&lt;font style=&quot;font-size: 16px;&quot;&gt;&lt;b&gt;train subset&lt;/b&gt;&lt;/font&gt;" style="shape=datastore;whiteSpace=wrap;html=1;fillColor=#CFCFCF;fontColor=#333333;strokeColor=#666666;" parent="S1jGFgNhS4szwYR1rYNL-102" vertex="1">
          <mxGeometry x="2.5" y="50" width="80" height="80" as="geometry" />
        </mxCell>
        <mxCell id="S1jGFgNhS4szwYR1rYNL-79" value="&lt;p style=&quot;line-height: 150%; font-size: 16px;&quot;&gt;CreateSchema&lt;br style=&quot;border-color: var(--border-color);&quot;&gt;&lt;b style=&quot;border-color: var(--border-color);&quot;&gt;(ChewBACCA)&lt;/b&gt;&lt;br&gt;&lt;/p&gt;" style="rounded=1;whiteSpace=wrap;html=1;fontSize=16;container=0;" parent="S1jGFgNhS4szwYR1rYNL-102" vertex="1">
          <mxGeometry x="160" y="55" width="150" height="70" as="geometry" />
        </mxCell>
        <mxCell id="S1jGFgNhS4szwYR1rYNL-80" style="edgeStyle=orthogonalEdgeStyle;rounded=0;orthogonalLoop=1;jettySize=auto;html=1;entryX=0;entryY=0.5;entryDx=0;entryDy=0;" parent="S1jGFgNhS4szwYR1rYNL-102" source="S1jGFgNhS4szwYR1rYNL-77" target="S1jGFgNhS4szwYR1rYNL-79" edge="1">
          <mxGeometry relative="1" as="geometry" />
        </mxCell>
        <mxCell id="S1jGFgNhS4szwYR1rYNL-121" value="&lt;font style=&quot;font-size: 16px;&quot;&gt;&lt;br style=&quot;border-color: var(--border-color);&quot;&gt;wgMLST&lt;br style=&quot;border-color: var(--border-color);&quot;&gt;schema&lt;br&gt;&lt;/font&gt;" style="shape=note;whiteSpace=wrap;html=1;backgroundOutline=1;darkOpacity=0.05;strokeColor=#006633;strokeWidth=4;" parent="S1jGFgNhS4szwYR1rYNL-102" vertex="1">
          <mxGeometry x="410" y="42" width="80" height="96" as="geometry" />
        </mxCell>
        <mxCell id="S1jGFgNhS4szwYR1rYNL-82" style="edgeStyle=orthogonalEdgeStyle;rounded=0;orthogonalLoop=1;jettySize=auto;html=1;entryX=0;entryY=0.5;entryDx=0;entryDy=0;entryPerimeter=0;" parent="S1jGFgNhS4szwYR1rYNL-102" source="S1jGFgNhS4szwYR1rYNL-79" target="S1jGFgNhS4szwYR1rYNL-121" edge="1">
          <mxGeometry relative="1" as="geometry">
            <mxPoint x="432.5" y="90" as="targetPoint" />
          </mxGeometry>
        </mxCell>
        <mxCell id="S1jGFgNhS4szwYR1rYNL-113" value="" style="group" parent="1" vertex="1" connectable="0">
          <mxGeometry x="-2220" y="180" width="790" height="252" as="geometry" />
        </mxCell>
        <mxCell id="S1jGFgNhS4szwYR1rYNL-97" value="&lt;font style=&quot;font-size: 16px;&quot;&gt;&lt;br&gt;results&lt;br&gt;allele&lt;br&gt;&lt;/font&gt;" style="shape=note;whiteSpace=wrap;html=1;backgroundOutline=1;darkOpacity=0.05;strokeWidth=4;strokeColor=#006633;" parent="S1jGFgNhS4szwYR1rYNL-113" vertex="1">
          <mxGeometry y="50" width="80" height="96" as="geometry" />
        </mxCell>
        <mxCell id="S1jGFgNhS4szwYR1rYNL-98" value="&lt;font style=&quot;font-size: 16px;&quot;&gt;&lt;br&gt;paralogs&lt;br&gt;&lt;/font&gt;" style="shape=note;whiteSpace=wrap;html=1;backgroundOutline=1;darkOpacity=0.05;size=38;strokeWidth=4;strokeColor=#006633;" parent="S1jGFgNhS4szwYR1rYNL-113" vertex="1">
          <mxGeometry y="156" width="80" height="96" as="geometry" />
        </mxCell>
        <mxCell id="S1jGFgNhS4szwYR1rYNL-100" value="&lt;b style=&quot;border-color: var(--border-color);&quot;&gt;Process 3&lt;/b&gt;" style="text;html=1;strokeColor=none;fillColor=none;align=center;verticalAlign=middle;whiteSpace=wrap;rounded=0;fontSize=16;labelBackgroundColor=default;spacingTop=2;spacingBottom=2;spacingLeft=2;spacingRight=2;" parent="S1jGFgNhS4szwYR1rYNL-113" vertex="1">
          <mxGeometry x="195" y="28" width="85" height="30" as="geometry" />
        </mxCell>
        <mxCell id="S1jGFgNhS4szwYR1rYNL-103" value="&lt;p style=&quot;line-height: 150%; font-size: 16px;&quot;&gt;RemoveGenes&lt;br style=&quot;border-color: var(--border-color);&quot;&gt;&lt;b style=&quot;border-color: var(--border-color);&quot;&gt;(ChewBACCA)&lt;/b&gt;&lt;br&gt;&lt;/p&gt;" style="rounded=1;whiteSpace=wrap;html=1;fontSize=16;container=0;" parent="S1jGFgNhS4szwYR1rYNL-113" vertex="1">
          <mxGeometry x="162.5" y="120" width="150" height="70" as="geometry" />
        </mxCell>
        <mxCell id="S1jGFgNhS4szwYR1rYNL-104" style="edgeStyle=orthogonalEdgeStyle;rounded=0;orthogonalLoop=1;jettySize=auto;html=1;entryX=0;entryY=0.25;entryDx=0;entryDy=0;endArrow=none;endFill=0;" parent="S1jGFgNhS4szwYR1rYNL-113" source="S1jGFgNhS4szwYR1rYNL-97" target="S1jGFgNhS4szwYR1rYNL-103" edge="1">
          <mxGeometry relative="1" as="geometry" />
        </mxCell>
        <mxCell id="S1jGFgNhS4szwYR1rYNL-105" style="edgeStyle=orthogonalEdgeStyle;rounded=0;orthogonalLoop=1;jettySize=auto;html=1;entryX=0;entryY=0.75;entryDx=0;entryDy=0;endArrow=none;endFill=0;" parent="S1jGFgNhS4szwYR1rYNL-113" source="S1jGFgNhS4szwYR1rYNL-98" target="S1jGFgNhS4szwYR1rYNL-103" edge="1">
          <mxGeometry relative="1" as="geometry" />
        </mxCell>
        <mxCell id="S1jGFgNhS4szwYR1rYNL-108" value="" style="edgeStyle=orthogonalEdgeStyle;rounded=0;orthogonalLoop=1;jettySize=auto;html=1;" parent="S1jGFgNhS4szwYR1rYNL-113" source="S1jGFgNhS4szwYR1rYNL-103" target="S1jGFgNhS4szwYR1rYNL-107" edge="1">
          <mxGeometry relative="1" as="geometry">
            <mxPoint x="480" y="155" as="targetPoint" />
            <mxPoint x="313" y="155" as="sourcePoint" />
          </mxGeometry>
        </mxCell>
        <mxCell id="S1jGFgNhS4szwYR1rYNL-109" value="&lt;span style=&quot;font-size: 15px;&quot;&gt;&amp;nbsp;no paralogs&amp;nbsp;&lt;br&gt;&amp;nbsp;dataset&lt;br&gt;&lt;/span&gt;" style="edgeLabel;html=1;align=center;verticalAlign=middle;resizable=0;points=[];" parent="S1jGFgNhS4szwYR1rYNL-108" vertex="1" connectable="0">
          <mxGeometry x="-0.1048" y="-2" relative="1" as="geometry">
            <mxPoint x="1" as="offset" />
          </mxGeometry>
        </mxCell>
        <mxCell id="S1jGFgNhS4szwYR1rYNL-107" value="&lt;p style=&quot;line-height: 150%; font-size: 16px;&quot;&gt;Extract cgMLST&lt;br style=&quot;border-color: var(--border-color);&quot;&gt;&lt;b style=&quot;border-color: var(--border-color);&quot;&gt;(ChewBACCA)&lt;/b&gt;&lt;br&gt;&lt;/p&gt;" style="rounded=1;whiteSpace=wrap;html=1;fontSize=16;container=0;" parent="S1jGFgNhS4szwYR1rYNL-113" vertex="1">
          <mxGeometry x="470" y="120" width="150" height="70" as="geometry" />
        </mxCell>
        <mxCell id="S1jGFgNhS4szwYR1rYNL-110" value="&lt;font style=&quot;font-size: 16px;&quot;&gt;&lt;br&gt;&lt;br&gt;cgMLST&lt;br&gt;schema&lt;br&gt;&lt;/font&gt;" style="shape=note;whiteSpace=wrap;html=1;backgroundOutline=1;darkOpacity=0.05;size=38;strokeWidth=4;strokeColor=#006633;" parent="S1jGFgNhS4szwYR1rYNL-113" vertex="1">
          <mxGeometry x="710" y="107" width="80" height="96" as="geometry" />
        </mxCell>
        <mxCell id="S1jGFgNhS4szwYR1rYNL-111" style="edgeStyle=orthogonalEdgeStyle;rounded=0;orthogonalLoop=1;jettySize=auto;html=1;entryX=0;entryY=0.5;entryDx=0;entryDy=0;entryPerimeter=0;" parent="S1jGFgNhS4szwYR1rYNL-113" source="S1jGFgNhS4szwYR1rYNL-107" target="S1jGFgNhS4szwYR1rYNL-110" edge="1">
          <mxGeometry relative="1" as="geometry" />
        </mxCell>
        <mxCell id="S1jGFgNhS4szwYR1rYNL-124" value="" style="group" parent="1" vertex="1" connectable="0">
          <mxGeometry x="-2220" y="450" width="550" height="256" as="geometry" />
        </mxCell>
        <mxCell id="S1jGFgNhS4szwYR1rYNL-112" value="&lt;b style=&quot;border-color: var(--border-color);&quot;&gt;Process 4&lt;/b&gt;" style="text;html=1;strokeColor=none;fillColor=none;align=center;verticalAlign=middle;whiteSpace=wrap;rounded=0;fontSize=16;labelBackgroundColor=default;spacingTop=2;spacingBottom=2;spacingLeft=2;spacingRight=2;" parent="S1jGFgNhS4szwYR1rYNL-124" vertex="1">
          <mxGeometry x="195" width="85" height="30" as="geometry" />
        </mxCell>
        <mxCell id="S1jGFgNhS4szwYR1rYNL-131" value="" style="group" parent="S1jGFgNhS4szwYR1rYNL-124" vertex="1" connectable="0">
          <mxGeometry y="30" width="550" height="226" as="geometry" />
        </mxCell>
        <mxCell id="S1jGFgNhS4szwYR1rYNL-114" value="&lt;span style=&quot;font-size: 16px;&quot;&gt;&lt;b&gt;test subset&lt;/b&gt;&lt;/span&gt;" style="shape=datastore;whiteSpace=wrap;html=1;fillColor=#CFCFCF;fontColor=#333333;strokeColor=#666666;" parent="S1jGFgNhS4szwYR1rYNL-131" vertex="1">
          <mxGeometry width="80" height="80" as="geometry" />
        </mxCell>
        <mxCell id="S1jGFgNhS4szwYR1rYNL-116" value="&lt;font style=&quot;font-size: 16px;&quot;&gt;&lt;br&gt;wgMLST&lt;br&gt;schema&lt;br&gt;&lt;/font&gt;" style="shape=note;whiteSpace=wrap;html=1;backgroundOutline=1;darkOpacity=0.05;" parent="S1jGFgNhS4szwYR1rYNL-131" vertex="1">
          <mxGeometry x="97.5" y="60" width="80" height="96" as="geometry" />
        </mxCell>
        <mxCell id="S1jGFgNhS4szwYR1rYNL-117" value="&lt;p style=&quot;line-height: 150%; font-size: 16px;&quot;&gt;AlleleCall&lt;br style=&quot;border-color: var(--border-color);&quot;&gt;&lt;b style=&quot;border-color: var(--border-color);&quot;&gt;(ChewBACCA)&lt;/b&gt;&lt;br&gt;&lt;/p&gt;" style="rounded=1;whiteSpace=wrap;html=1;fontSize=16;container=0;" parent="S1jGFgNhS4szwYR1rYNL-131" vertex="1">
          <mxGeometry x="270" y="73" width="150" height="70" as="geometry" />
        </mxCell>
        <mxCell id="S1jGFgNhS4szwYR1rYNL-118" style="edgeStyle=orthogonalEdgeStyle;rounded=0;orthogonalLoop=1;jettySize=auto;html=1;entryX=0.25;entryY=0;entryDx=0;entryDy=0;endArrow=none;endFill=0;" parent="S1jGFgNhS4szwYR1rYNL-131" source="S1jGFgNhS4szwYR1rYNL-114" target="S1jGFgNhS4szwYR1rYNL-117" edge="1">
          <mxGeometry relative="1" as="geometry" />
        </mxCell>
        <mxCell id="S1jGFgNhS4szwYR1rYNL-119" style="edgeStyle=orthogonalEdgeStyle;rounded=0;orthogonalLoop=1;jettySize=auto;html=1;exitX=0;exitY=0;exitDx=80;exitDy=67;exitPerimeter=0;entryX=0.25;entryY=1;entryDx=0;entryDy=0;endArrow=none;endFill=0;" parent="S1jGFgNhS4szwYR1rYNL-131" target="S1jGFgNhS4szwYR1rYNL-117" edge="1">
          <mxGeometry relative="1" as="geometry">
            <mxPoint x="80" y="175" as="sourcePoint" />
          </mxGeometry>
        </mxCell>
        <mxCell id="S1jGFgNhS4szwYR1rYNL-120" style="edgeStyle=orthogonalEdgeStyle;rounded=0;orthogonalLoop=1;jettySize=auto;html=1;entryX=0;entryY=0.5;entryDx=0;entryDy=0;endArrow=none;endFill=0;" parent="S1jGFgNhS4szwYR1rYNL-131" source="S1jGFgNhS4szwYR1rYNL-116" target="S1jGFgNhS4szwYR1rYNL-117" edge="1">
          <mxGeometry relative="1" as="geometry" />
        </mxCell>
        <mxCell id="S1jGFgNhS4szwYR1rYNL-123" value="&lt;font style=&quot;font-size: 16px;&quot;&gt;&lt;br style=&quot;border-color: var(--border-color);&quot;&gt;results&lt;br style=&quot;border-color: var(--border-color);&quot;&gt;final&lt;br&gt;&lt;/font&gt;" style="shape=note;whiteSpace=wrap;html=1;backgroundOutline=1;darkOpacity=0.05;strokeColor=#006633;strokeWidth=4;" parent="S1jGFgNhS4szwYR1rYNL-131" vertex="1">
          <mxGeometry x="470" y="60" width="80" height="96" as="geometry" />
        </mxCell>
        <mxCell id="S1jGFgNhS4szwYR1rYNL-125" value="" style="edgeStyle=orthogonalEdgeStyle;rounded=0;orthogonalLoop=1;jettySize=auto;html=1;" parent="S1jGFgNhS4szwYR1rYNL-131" source="S1jGFgNhS4szwYR1rYNL-117" target="S1jGFgNhS4szwYR1rYNL-123" edge="1">
          <mxGeometry relative="1" as="geometry" />
        </mxCell>
        <mxCell id="S1jGFgNhS4szwYR1rYNL-130" value="&lt;font style=&quot;font-size: 16px;&quot;&gt;&lt;br&gt;cgMLST&lt;br&gt;schema&lt;br&gt;&lt;/font&gt;" style="shape=note;whiteSpace=wrap;html=1;backgroundOutline=1;darkOpacity=0.05;strokeColor=#006633;strokeWidth=4;" parent="S1jGFgNhS4szwYR1rYNL-131" vertex="1">
          <mxGeometry y="130" width="80" height="96" as="geometry" />
        </mxCell>
        <mxCell id="S1jGFgNhS4szwYR1rYNL-139" value="" style="group;strokeWidth=1;strokeColor=none;" parent="1" vertex="1" connectable="0">
          <mxGeometry x="-2222.5" y="-60" width="512.5" height="256" as="geometry" />
        </mxCell>
        <mxCell id="S1jGFgNhS4szwYR1rYNL-91" value="&lt;font style=&quot;font-size: 16px;&quot;&gt;&lt;br&gt;paralogs&lt;br&gt;&lt;/font&gt;" style="shape=note;whiteSpace=wrap;html=1;backgroundOutline=1;darkOpacity=0.05;size=38;strokeWidth=4;strokeColor=#006633;" parent="S1jGFgNhS4szwYR1rYNL-139" vertex="1">
          <mxGeometry x="432.5" y="160" width="80" height="96" as="geometry" />
        </mxCell>
        <mxCell id="S1jGFgNhS4szwYR1rYNL-138" value="" style="group" parent="S1jGFgNhS4szwYR1rYNL-139" vertex="1" connectable="0">
          <mxGeometry width="512.5" height="230" as="geometry" />
        </mxCell>
        <mxCell id="S1jGFgNhS4szwYR1rYNL-101" value="" style="group" parent="S1jGFgNhS4szwYR1rYNL-138" vertex="1" connectable="0">
          <mxGeometry width="512.5" height="230" as="geometry" />
        </mxCell>
        <mxCell id="S1jGFgNhS4szwYR1rYNL-84" value="&lt;font style=&quot;font-size: 16px;&quot;&gt;&lt;br&gt;wgMLST&lt;br&gt;schema&lt;br&gt;&lt;/font&gt;" style="shape=note;whiteSpace=wrap;html=1;backgroundOutline=1;darkOpacity=0.05;strokeWidth=4;strokeColor=#006633;" parent="S1jGFgNhS4szwYR1rYNL-101" vertex="1">
          <mxGeometry x="2.5" y="40" width="80" height="96" as="geometry" />
        </mxCell>
        <mxCell id="S1jGFgNhS4szwYR1rYNL-85" value="&lt;font style=&quot;font-size: 16px;&quot;&gt;&lt;b&gt;train subset&lt;/b&gt;&lt;/font&gt;" style="shape=datastore;whiteSpace=wrap;html=1;fillColor=#CFCFCF;fontColor=#333333;strokeColor=#666666;" parent="S1jGFgNhS4szwYR1rYNL-101" vertex="1">
          <mxGeometry x="5" y="150" width="80" height="80" as="geometry" />
        </mxCell>
        <mxCell id="S1jGFgNhS4szwYR1rYNL-87" value="&lt;p style=&quot;line-height: 150%; font-size: 16px;&quot;&gt;AlleleCall&lt;br style=&quot;border-color: var(--border-color);&quot;&gt;&lt;b style=&quot;border-color: var(--border-color);&quot;&gt;(ChewBACCA)&lt;/b&gt;&lt;br&gt;&lt;/p&gt;" style="rounded=1;whiteSpace=wrap;html=1;fontSize=16;container=0;" parent="S1jGFgNhS4szwYR1rYNL-101" vertex="1">
          <mxGeometry x="162.5" y="100" width="150" height="70" as="geometry" />
        </mxCell>
        <mxCell id="S1jGFgNhS4szwYR1rYNL-92" style="edgeStyle=orthogonalEdgeStyle;rounded=0;orthogonalLoop=1;jettySize=auto;html=1;entryX=0;entryY=0.25;entryDx=0;entryDy=0;endArrow=none;endFill=0;" parent="S1jGFgNhS4szwYR1rYNL-101" source="S1jGFgNhS4szwYR1rYNL-84" target="S1jGFgNhS4szwYR1rYNL-87" edge="1">
          <mxGeometry relative="1" as="geometry" />
        </mxCell>
        <mxCell id="S1jGFgNhS4szwYR1rYNL-93" style="edgeStyle=orthogonalEdgeStyle;rounded=0;orthogonalLoop=1;jettySize=auto;html=1;entryX=0;entryY=0.75;entryDx=0;entryDy=0;endArrow=none;endFill=0;" parent="S1jGFgNhS4szwYR1rYNL-101" source="S1jGFgNhS4szwYR1rYNL-85" target="S1jGFgNhS4szwYR1rYNL-87" edge="1">
          <mxGeometry relative="1" as="geometry" />
        </mxCell>
        <mxCell id="S1jGFgNhS4szwYR1rYNL-89" value="&lt;font style=&quot;font-size: 16px;&quot;&gt;&lt;br&gt;results&lt;br&gt;allele&lt;br&gt;&lt;/font&gt;" style="shape=note;whiteSpace=wrap;html=1;backgroundOutline=1;darkOpacity=0.05;strokeWidth=4;strokeColor=#006633;" parent="S1jGFgNhS4szwYR1rYNL-101" vertex="1">
          <mxGeometry x="432.5" y="34" width="80" height="96" as="geometry" />
        </mxCell>
        <mxCell id="S1jGFgNhS4szwYR1rYNL-94" style="edgeStyle=orthogonalEdgeStyle;rounded=0;orthogonalLoop=1;jettySize=auto;html=1;entryX=0;entryY=0.5;entryDx=0;entryDy=0;entryPerimeter=0;" parent="S1jGFgNhS4szwYR1rYNL-101" source="S1jGFgNhS4szwYR1rYNL-87" target="S1jGFgNhS4szwYR1rYNL-89" edge="1">
          <mxGeometry relative="1" as="geometry" />
        </mxCell>
        <mxCell id="S1jGFgNhS4szwYR1rYNL-96" value="&lt;b style=&quot;border-color: var(--border-color);&quot;&gt;Process 2&lt;/b&gt;" style="text;html=1;strokeColor=none;fillColor=none;align=center;verticalAlign=middle;whiteSpace=wrap;rounded=0;fontSize=16;labelBackgroundColor=default;spacingTop=2;spacingBottom=2;spacingLeft=2;spacingRight=2;" parent="S1jGFgNhS4szwYR1rYNL-101" vertex="1">
          <mxGeometry x="195" y="4" width="85" height="30" as="geometry" />
        </mxCell>
        <mxCell id="S1jGFgNhS4szwYR1rYNL-95" style="edgeStyle=orthogonalEdgeStyle;rounded=0;orthogonalLoop=1;jettySize=auto;html=1;entryX=0;entryY=0.5;entryDx=0;entryDy=0;entryPerimeter=0;" parent="S1jGFgNhS4szwYR1rYNL-139" source="S1jGFgNhS4szwYR1rYNL-87" target="S1jGFgNhS4szwYR1rYNL-91" edge="1">
          <mxGeometry relative="1" as="geometry" />
        </mxCell>
        <mxCell id="S1jGFgNhS4szwYR1rYNL-140" value="" style="group" parent="1" vertex="1" connectable="0">
          <mxGeometry x="-2220" y="740" width="517.5" height="202" as="geometry" />
        </mxCell>
        <mxCell id="S1jGFgNhS4szwYR1rYNL-126" value="&lt;b style=&quot;border-color: var(--border-color);&quot;&gt;Process 5&lt;/b&gt;" style="text;html=1;strokeColor=none;fillColor=none;align=center;verticalAlign=middle;whiteSpace=wrap;rounded=0;fontSize=16;labelBackgroundColor=default;spacingTop=2;spacingBottom=2;spacingLeft=2;spacingRight=2;" parent="S1jGFgNhS4szwYR1rYNL-140" vertex="1">
          <mxGeometry x="197.5" width="85" height="30" as="geometry" />
        </mxCell>
        <mxCell id="S1jGFgNhS4szwYR1rYNL-128" value="&lt;font style=&quot;font-size: 16px;&quot;&gt;&lt;br style=&quot;border-color: var(--border-color);&quot;&gt;results&lt;br style=&quot;border-color: var(--border-color);&quot;&gt;final&lt;br&gt;&lt;/font&gt;" style="shape=note;whiteSpace=wrap;html=1;backgroundOutline=1;darkOpacity=0.05;strokeColor=#006633;strokeWidth=4;" parent="S1jGFgNhS4szwYR1rYNL-140" vertex="1">
          <mxGeometry width="80" height="96" as="geometry" />
        </mxCell>
        <mxCell id="S1jGFgNhS4szwYR1rYNL-129" value="&lt;font style=&quot;font-size: 16px;&quot;&gt;&lt;br&gt;cgMLST&lt;br&gt;schema&lt;br&gt;&lt;/font&gt;" style="shape=note;whiteSpace=wrap;html=1;backgroundOutline=1;darkOpacity=0.05;strokeColor=#006633;strokeWidth=4;" parent="S1jGFgNhS4szwYR1rYNL-140" vertex="1">
          <mxGeometry y="106" width="80" height="96" as="geometry" />
        </mxCell>
        <mxCell id="S1jGFgNhS4szwYR1rYNL-141" style="edgeStyle=orthogonalEdgeStyle;rounded=0;orthogonalLoop=1;jettySize=auto;html=1;entryX=0;entryY=0.5;entryDx=0;entryDy=0;entryPerimeter=0;" parent="S1jGFgNhS4szwYR1rYNL-140" source="S1jGFgNhS4szwYR1rYNL-132" target="S1jGFgNhS4szwYR1rYNL-135" edge="1">
          <mxGeometry relative="1" as="geometry" />
        </mxCell>
        <mxCell id="S1jGFgNhS4szwYR1rYNL-132" value="&lt;p style=&quot;line-height: 60%; font-size: 16px;&quot;&gt;&lt;span style=&quot;border-color: var(--border-color);&quot;&gt;JoinProfiles&lt;/span&gt;&lt;/p&gt;&lt;p style=&quot;line-height: 60%; font-size: 16px;&quot;&gt;&lt;b style=&quot;border-color: var(--border-color);&quot;&gt;(ChewBACCA)&lt;/b&gt;&lt;br&gt;&lt;/p&gt;" style="rounded=1;whiteSpace=wrap;html=1;fontSize=16;container=0;" parent="S1jGFgNhS4szwYR1rYNL-140" vertex="1">
          <mxGeometry x="165" y="70" width="150" height="70" as="geometry" />
        </mxCell>
        <mxCell id="S1jGFgNhS4szwYR1rYNL-133" style="edgeStyle=orthogonalEdgeStyle;rounded=0;orthogonalLoop=1;jettySize=auto;html=1;entryX=0;entryY=0.25;entryDx=0;entryDy=0;endArrow=none;endFill=0;" parent="S1jGFgNhS4szwYR1rYNL-140" source="S1jGFgNhS4szwYR1rYNL-128" target="S1jGFgNhS4szwYR1rYNL-132" edge="1">
          <mxGeometry relative="1" as="geometry" />
        </mxCell>
        <mxCell id="S1jGFgNhS4szwYR1rYNL-134" style="edgeStyle=orthogonalEdgeStyle;rounded=0;orthogonalLoop=1;jettySize=auto;html=1;entryX=0;entryY=0.75;entryDx=0;entryDy=0;endArrow=none;endFill=0;" parent="S1jGFgNhS4szwYR1rYNL-140" source="S1jGFgNhS4szwYR1rYNL-129" target="S1jGFgNhS4szwYR1rYNL-132" edge="1">
          <mxGeometry relative="1" as="geometry" />
        </mxCell>
        <mxCell id="S1jGFgNhS4szwYR1rYNL-135" value="&lt;font style=&quot;font-size: 16px;&quot;&gt;&lt;br&gt;cgMLST&lt;br&gt;total&lt;br&gt;&lt;/font&gt;" style="shape=note;whiteSpace=wrap;html=1;backgroundOutline=1;darkOpacity=0.05;strokeColor=#006633;strokeWidth=4;" parent="S1jGFgNhS4szwYR1rYNL-140" vertex="1">
          <mxGeometry x="437.5" y="57" width="80" height="96" as="geometry" />
        </mxCell>
        <mxCell id="S1jGFgNhS4szwYR1rYNL-2" value=".&lt;font style=&quot;font-size: 16px;&quot;&gt;&lt;b&gt;fastq&lt;/b&gt;&lt;/font&gt;" style="shape=datastore;whiteSpace=wrap;html=1;fillColor=#CFCFCF;fontColor=#333333;strokeColor=#666666;" parent="1" vertex="1">
          <mxGeometry x="-2390" y="-1130" width="110" height="130" as="geometry" />
        </mxCell>
        <mxCell id="S1jGFgNhS4szwYR1rYNL-3" value="&lt;font style=&quot;font-size: 16px;&quot;&gt;&lt;b&gt;.fasta&lt;/b&gt;&lt;/font&gt;" style="shape=datastore;whiteSpace=wrap;html=1;fillColor=#CFCFCF;fontColor=#333333;strokeColor=#666666;" parent="1" vertex="1">
          <mxGeometry x="-2390" y="-950" width="110" height="130" as="geometry" />
        </mxCell>
        <mxCell id="S1jGFgNhS4szwYR1rYNL-4" value="&lt;p style=&quot;line-height: 180%; font-size: 16px;&quot;&gt;&lt;font style=&quot;font-size: 16px;&quot;&gt;QC&lt;br style=&quot;font-size: 16px;&quot;&gt;&lt;b style=&quot;font-size: 16px;&quot;&gt;(fastq, multiqc)&lt;/b&gt;&lt;/font&gt;&lt;/p&gt;" style="rounded=1;whiteSpace=wrap;html=1;fillColor=#b0e3e6;strokeColor=#0e8088;fontSize=16;container=0;" parent="1" vertex="1">
          <mxGeometry x="-2210" y="-1000" width="140" height="70" as="geometry" />
        </mxCell>
        <mxCell id="S1jGFgNhS4szwYR1rYNL-20" style="edgeStyle=orthogonalEdgeStyle;rounded=0;orthogonalLoop=1;jettySize=auto;html=1;exitX=1;exitY=0.7;exitDx=0;exitDy=0;entryX=0;entryY=0.5;entryDx=0;entryDy=0;" parent="1" source="S1jGFgNhS4szwYR1rYNL-2" target="S1jGFgNhS4szwYR1rYNL-4" edge="1">
          <mxGeometry relative="1" as="geometry" />
        </mxCell>
        <mxCell id="S1jGFgNhS4szwYR1rYNL-19" style="edgeStyle=orthogonalEdgeStyle;rounded=0;orthogonalLoop=1;jettySize=auto;html=1;exitX=0.5;exitY=1;exitDx=0;exitDy=0;entryX=0.5;entryY=0;entryDx=0;entryDy=0;" parent="1" source="S1jGFgNhS4szwYR1rYNL-5" target="S1jGFgNhS4szwYR1rYNL-4" edge="1">
          <mxGeometry relative="1" as="geometry" />
        </mxCell>
        <mxCell id="S1jGFgNhS4szwYR1rYNL-5" value="&lt;p style=&quot;line-height: 140%; font-size: 16px;&quot;&gt;&lt;font style=&quot;font-size: 16px;&quot;&gt;trimming&lt;br style=&quot;font-size: 16px;&quot;&gt;&lt;b style=&quot;font-size: 16px;&quot;&gt;(fastp)&lt;/b&gt;&lt;/font&gt;&lt;/p&gt;" style="rounded=1;whiteSpace=wrap;html=1;fontSize=16;container=0;" parent="1" vertex="1">
          <mxGeometry x="-2215" y="-1100" width="150" height="70" as="geometry" />
        </mxCell>
        <mxCell id="S1jGFgNhS4szwYR1rYNL-17" style="edgeStyle=orthogonalEdgeStyle;rounded=0;orthogonalLoop=1;jettySize=auto;html=1;entryX=0;entryY=0.5;entryDx=0;entryDy=0;endArrow=none;endFill=0;" parent="1" source="S1jGFgNhS4szwYR1rYNL-2" target="S1jGFgNhS4szwYR1rYNL-5" edge="1">
          <mxGeometry relative="1" as="geometry" />
        </mxCell>
        <mxCell id="S1jGFgNhS4szwYR1rYNL-7" value="&lt;p style=&quot;line-height: 150%; font-size: 16px;&quot;&gt;Assembly&lt;br style=&quot;border-color: var(--border-color);&quot;&gt;&lt;b style=&quot;border-color: var(--border-color);&quot;&gt;(Shovill - SPAdes)&lt;/b&gt;&lt;br&gt;&lt;/p&gt;" style="rounded=1;whiteSpace=wrap;html=1;fontSize=16;container=0;" parent="1" vertex="1">
          <mxGeometry x="-2020" y="-1000" width="150" height="70" as="geometry" />
        </mxCell>
        <mxCell id="S1jGFgNhS4szwYR1rYNL-8" value="&lt;span style=&quot;font-size: 15px;&quot;&gt;trimmed reads&lt;/span&gt;" style="edgeStyle=orthogonalEdgeStyle;rounded=0;orthogonalLoop=1;jettySize=auto;html=1;entryX=0.5;entryY=0;entryDx=0;entryDy=0;" parent="1" source="S1jGFgNhS4szwYR1rYNL-5" target="S1jGFgNhS4szwYR1rYNL-7" edge="1">
          <mxGeometry relative="1" as="geometry" />
        </mxCell>
        <mxCell id="S1jGFgNhS4szwYR1rYNL-9" value="&lt;p style=&quot;line-height: 80%; font-size: 16px;&quot;&gt;Assembly QC&lt;/p&gt;&lt;p style=&quot;line-height: 80%; font-size: 16px;&quot;&gt;&lt;b&gt;(CheckM - QUAST)&lt;/b&gt;&lt;/p&gt;" style="rounded=1;whiteSpace=wrap;html=1;fillColor=#b0e3e6;strokeColor=#0e8088;fontSize=16;container=0;" parent="1" vertex="1">
          <mxGeometry x="-1780" y="-1000" width="170" height="70" as="geometry" />
        </mxCell>
        <mxCell id="S1jGFgNhS4szwYR1rYNL-23" style="edgeStyle=orthogonalEdgeStyle;rounded=0;orthogonalLoop=1;jettySize=auto;html=1;entryX=0.5;entryY=1;entryDx=0;entryDy=0;" parent="1" source="S1jGFgNhS4szwYR1rYNL-3" target="S1jGFgNhS4szwYR1rYNL-9" edge="1">
          <mxGeometry relative="1" as="geometry" />
        </mxCell>
        <mxCell id="S1jGFgNhS4szwYR1rYNL-24" value="" style="shape=curlyBracket;whiteSpace=wrap;html=1;rounded=1;flipH=1;labelPosition=right;verticalLabelPosition=middle;align=left;verticalAlign=middle;strokeWidth=4;" parent="1" vertex="1">
          <mxGeometry x="-1600" y="-1100" width="20" height="280" as="geometry" />
        </mxCell>
        <mxCell id="S1jGFgNhS4szwYR1rYNL-27" value="" style="group;strokeWidth=4;" parent="1" vertex="1" connectable="0">
          <mxGeometry x="-1530" y="-1010" width="90" height="110" as="geometry" />
        </mxCell>
        <mxCell id="S1jGFgNhS4szwYR1rYNL-25" value="" style="shape=note;whiteSpace=wrap;html=1;backgroundOutline=1;darkOpacity=0.05;strokeWidth=3;" parent="S1jGFgNhS4szwYR1rYNL-27" vertex="1">
          <mxGeometry width="80" height="100" as="geometry" />
        </mxCell>
        <mxCell id="S1jGFgNhS4szwYR1rYNL-26" value="&lt;font style=&quot;font-size: 16px;&quot;&gt;fasta&lt;/font&gt;" style="shape=note;whiteSpace=wrap;html=1;backgroundOutline=1;darkOpacity=0.05;strokeWidth=3;" parent="S1jGFgNhS4szwYR1rYNL-27" vertex="1">
          <mxGeometry x="10" y="10" width="80" height="100" as="geometry" />
        </mxCell>
        <mxCell id="S1jGFgNhS4szwYR1rYNL-22" value="&lt;font style=&quot;font-size: 15px;&quot;&gt;fasta&lt;/font&gt;" style="edgeStyle=orthogonalEdgeStyle;rounded=0;orthogonalLoop=1;jettySize=auto;html=1;entryX=0;entryY=0.5;entryDx=0;entryDy=0;" parent="1" source="S1jGFgNhS4szwYR1rYNL-7" target="S1jGFgNhS4szwYR1rYNL-9" edge="1">
          <mxGeometry relative="1" as="geometry" />
        </mxCell>
        <mxCell id="S1jGFgNhS4szwYR1rYNL-32" value="&lt;font style=&quot;font-size: 39px;&quot; color=&quot;#ffffff&quot;&gt;# 1&lt;/font&gt;" style="ellipse;whiteSpace=wrap;html=1;aspect=fixed;fillColor=#000000;" parent="1" vertex="1">
          <mxGeometry x="-1380" y="-995" width="80" height="80" as="geometry" />
        </mxCell>
        <mxCell id="S1jGFgNhS4szwYR1rYNL-201" value="" style="shape=image;verticalLabelPosition=bottom;labelBackgroundColor=default;verticalAlign=top;aspect=fixed;imageAspect=0;image=data:image/png,iVBORw0KGgoAAAANSUhEUgAAAfYAAABkCAMAAABD7OJyAAABGlBMVEX///8AAAAmr2QbrV/w8PDMzMxyypnz8/MLCwtUVFR7e3v19fUvs2zD59LQ0NB4eHiCgoL1/PgAqliq2bvb7uKIz6TFxcUsLCyv4MPh4eEZGRk2Njbq6uprx5O03cOoqKgipV25ubmi2rkfnFYbkk9Cu3uSkpIpKSkVgkNhYWFHR0fa2tpubm6zs7NkZGQXh0cgICCdnZ1NTU3n9u4/Pz/O7NsQdjqCzKBcv4aMjIxPu32a17TT7t8MazIHYCoOcDWIxJ4DVCEATRMAWRgDkUkAaSMxbkZFeldah2h0l36ZsZ+tyrey18EAnU09rG9UqXh6so+OsJnL1s50u5Gfx64AdzNkqX8vnF1LjmV1qIm5zcCZvaYeZTZru4pYfORmAAARt0lEQVR4nO2d+0PiSBLHkSg+CDoJAUEgAgqKqKgZJAI6zo57t6/Zx83O7t7N7f//b1xehFR1ddJgBtDL96cZ03QCn+7q6uruSiqVKFGiRIkSJUqUKFGiRK9H6+UNV+Xssh8l0YJUbO91bir7tio3nXYC/v9A1Z3KwVpQN5vLfqREX1vd8zWs7QD23f2DgLYukxbxGpS9vmKoA+wb6NL68p41UVzKsl0dY99KsL820dQT7C9FCpTgp6odknqC/YXIMGtBNQW539HUE+wvRJoqBaQWxLAXOdQT7C9EmpoOSBLEvp9gf9maC3ubRz3B/kI0D/ZshSJ+sL9/kmB/IZoH++EWw3z7+rBRLBYvioFiCfbV1TzYdxjoxTJRLMG+upoDe/cMUT+nl90S7KurObA3kI3f5pRLsK+u5sB+iDo7ZeBtJdhXV7Njz6II3Q2vYIJ9dTU7dhyOP+QVTLCvrmbHXn4rZuMT7CssTQUaRGPvQppXCfYXKEUH6kd/Yhd29rMqr2CC/TUJYb9JsP9fCGE/59J85dgVQ9PG41LTU07TDNFNKoEa9GYhY6vQ1GevYC5lZ9nTnt30lEVr7TtV/5J9NfCRubBXy93d3Ub7+rp92N3tdquhzxi8M7o5lFApVFvYRl+jn8sPai3Z8ob8rQqqPMzkc0b0V/Q01kemPP28pEqyWchpTDktrxN/nV3GuJ/T87r++KhHKD+93d3ejqdLiP2tf8HS3nXgR50Ze3bjot0B84ST7TeHRe4okmoE723dfZdTrhsot3fH495GtfF81XFzYLbSFq80koXOJhf1NR3lBsM0U4P1hyHzeV1NWw1qJOB18aWVRgNz2JLTTjtVuXKuSWrJ/yB3YwUa6edfeC1fX5ILuleduy7nI3iTzx2nHNwfwGtGqLIKid1omjLLK0hONqMJjWsypw4pLWegxbCw2zeUh6X5hgDFamGy/cz8h3ZVt2X/I4CdJMJq7vX29Z0Tfq1X2zT4LCp3xumg0EBx4kvIZ1lrsz+gURoSnZwhp9bGYV81ZRRCK5HSYEejrk6qVQezew/WE0c/soX76Oho8dg3+ft1PJ2TRPHHaCtfhQEmztIR2gF+VUTXlVxBViN+vwk4uUTewtXYjMKgBju8Pr2pJI/CGxSUIfDEDvHj4yD1hWHf5Wy/DqpyQX0QFbomq7+A5/S26IdAZ3w6cCywTKUc2c+nfKQRt1/2W9H1qOYUrx4kJ7UKou6dNjLTEXeqW8B7vWNEfVHYD8UqJ07TVm9gkTOyfmwTyBEjwsaLwALgeWFusYok06erw/C51BLyGY1BK8K21497p6enE+pHU+oLwn7N7tGitcdyx4vA1D2ye+FEXaG2cYJsfE6eibrFh45za5EWHnPXkZ2WVDOywxuZKOa923e3tzT1xWC/FoS+RoWGNpAjSFn5XfzsHeox0DiDHYCZsafVEXEXZSDoHqT95RGM3bb0eqhrpxVCrXv9qHd7fz+ljkz8YrBfiFMnZmjrKIpALf4zZzneElO4DfQFcfuZHXs6TVjj5gz+gddsWOyWCvywkNIcht3k6PTdwwNJfZHYNwQDAp6YyReyFVtELIYxJ1cNthAeLXA9c2CXZBYJWU6i59SSa8tJ7FKNZ+j7oY7c8buH9z512sQvAjvurZHC87guajYs0eo2UwkxuKMtQ2/xdQq75AHjcmPMfIaJy6Xllpkp1IYyC0sy+ditNkV6dsooBHr99OH9+wn1Wws668QvCDs5sG8dXNnaolw9ZtKNoJ4ztyizlZwz8fYumhIwrQdjd3iZtUwmMyoMMhlz2CJ+7xbqkn2m7Zgjr4hRMllOJRc73aakPPtz9od81+Ho9v03lj58+EBZeDltPZvsSppivznZ94Tmtwf+Bfva+WwxeQLJ2d71rltJt/FmmyG/hc088g22GaLEMc0KE9ZBhQ6YZ0XYW0091zemA6yi5UoFdmLfhJUUUAF5FBiilRH+vFSzLxv5wpAGn0eOnZLnRXwl6enbb97/45/fff/9Dz/88OVHWz9NxCzFlKatdbc4Eeqgl41iQMEpsQB25qDF/jWw4tULJpDTwf4YvMyO21T+BRyBw1aHDe5D7FKG/S4pZYyxutx8jbGvhex0njEGXgEtV6OA1h8Bd2NAM1c//vzLr7/9y5JmCCcwYITiGm+4C5nR2KsMU6YbVpmwLeaKrDwzhSOoM4XWUSVMsxDBnmLHYTgAlyA6lYngjnCz8ef+St9UGfD1oyD3MREHsrp5qzBWlJnW2GnFiB0jvaQWx3AGBTx5L4ZfZpoW9SyoELGkI4Ydg1OD469Rk6LqqOFRIOAc5LCLXq8fPX3yuetss7CXceNYqXcUH/YsOlXFWUDDIwGKrW5Cb/MEGQw6GoTuhKZvRNBHEHtqiNAGuqMGbbhMEDEQOtBslDyo3Fk1e/L6u0IEBCSzyZ3dK3ouKIEFnviwN5B3SEynbZUjInHt0FrY6RtRCLYcal4vil2H2Fv0UlqaF7QfQHpSDVzVgtbAXTrr/WpXoxRY6Ol8yE6f2TdMx4cd8arwKkLl8HoLsvLwgbL0Mj6c56F1e8r5FMWuwRFWCvz0CKlOfhx7dfCyMvJdO5f6ce/0d+vPGYZ6xJr/7McjYsO+iXxscoXEVhEunK6hy2XYoSvrYZ/1dABqaMCL1CYdUewK9ObVqSVXYA30eoqC2oaKd+rkPENvr5Pb1Hunn78ozPKOJDep2qdaIna8RMKtCB+/wjYYDd9gcOel1ALOIwwVblELs6LYkVMX8NYV+EsP6I/riB8T6POW8DwT3zs9vT1lqUfu61oidtTHKvxJxht0S3S5CAO0O8FrvOBv0LSgpCxMYNaWMPY8D3sfTu6o9bmUPbdPR9zIsA2C48852G9PjxhvLhO5f3eJ2FF8bYesxBHqzjhAm4XWIGjAu+jAHllHAw4E5F6752OHZoC37QrN8tIttog9EPid3aKOoYtAXB72LPLUuCdnGS77+DqqKWDAL3hbOIJ1oIGA/EJzYg8YaThq0yspKTaASxRRBgETz1DHEWFSy8O+jjy6Df4t0TLbFb5ehs0iYMC5WzMPpoG4dWgs6B2W82KfFoQjcKuvkEqNEEQKiFL46PlzBPWw3Zu+locd74PjnW2wtA4HX9bnglVN91rwUuOuBd11tORPRw+ejx0GcuRBgRZeiKMd/k9Pbmc/RqUjXXhPS8SOWIZgT72NKNoA1/d9K98lUt57ms7cYYiOPhURA3YMiCcR7Cnl8emYoM51GbCWh72Mzsnzjr7YQo4Zs3caxlumi7OgOZyA+f3Z5H6bcIcl56xU7NhFxQmqK79anZ2hLjSu21oZ7LwTLY4i86bAApMZXhbM/LbBfvmDiTEvQ6vDiRCvGvaU8QdBXbCvvxrs8KFuvLo2wah9Dn23SWgfvttkm/MYK4c9pf2Ji4pa+NSrwQ7PO016chV9CszUJqu8cPrGOz25ctiVJg7fS6IWPvVqsKMggNeTobO2CZPlnriDexZ4fQccG79y2Ik1t+O/xN+99UqwoyUXryeDeV3FcuzBMO7O3OF2Pvo0VWrlsBvs4Zrjhw9/hfyEUK8FO5qhuz0Z/Oka1+M6ftBM8Gz8imEnNlAd3d/ff/tv0a1yK4N9f4YJHBXHhficKR501sq4kLv2U2EKkVrcvB2JAKKUCOrvbN1+EeS+ROwwODZLuIbd4YhPw13afwLTt337ObugHnskgF4fE+339XzsLYBJrmXExN5BIY5c1+2TjLa+hPyKAa1McJZc5Z7orUBRWJ39VIRJB49kGw3o9fGXg2KPyc+SnwCoT5yzr5/ayE9tPQpVssSlGDRgh/R2tBTDHl6wBSdiGzhLqrvSA5bf7UUXuB7Ez470fOwZsRW4CBkjYsd83QFun27q9T5/ErHzS1x4ReudvKmTXRMMrZ+QhdZBmUv0bpOKayHgvjvcNDjvQ7D1fOxoL7V4aCUonToeX++5xN3jTU+fBJKkLXGbBdqljPfMBIQSH3BmWWD79QHq/nvunBYG77sov0lIy3s+9hz6pfn34mpMJVKRPh57wI/dQ21Pv0RbktXZVHUjvKlqjy4Fd+vswh2a3qgNN+K0kWsf4l48HzvaS1cTT1zoyShQ+U/UwqMP3FO9ztmxNdUSseNMFPz0kGhDHKdTQqe8DRwCPycJMDGdTej1hRwZigF761mDu0EeYZbsNbfHp2MfuCt1GOExLhF7FdGkUlG5FaEttpxicL2t0wj+73LylCAt+tlh0GngBmZtPR878ulEX7DpShu1yOwG7urLp48+cf8C/0SMU9/ysOM9bNzAKNpBSe5stQX8tRMwofOjb2BTPVyB5+fKTsWCPYd6q3g60f/89jN5glkauiZD+RslJrCvmWFZK7WZR5z4sKN8cbzddFV0VI57jIK7TXZta2pJ+IkPQ7buxoIdnXiRhmLdXfny3X+fKOiBTCZ4v61zNW3yZwvoWcxFYkfZIekMUuzhRf4En4t0f7o2xU2RtBVm4+PAjk+8SMPIH1vJ/vjXwzfvUUeeYA04bgqTHsUuYRXhpCs1YMxQig4exXjQGSeMI+dwDVSow89mic9STu89LcO8vHAi7hE8RzFgT+UwFrkUAl7R+r//cfvtw8M9uzvW/rAJfUK80XrSNmq6RtwEH7qOnk7GiB2GyC3dMcNrFlPne35kdiJXwaArld3CuXfot44DO7taKpnNPrXWovV/+v3Tn58/3767f3hHUZfYFGWcZHSS1Mrkc31UWsGtJOABGmT6+hixs6eQOw24VWCDSXNyE7ZAyzvxFqyUNxKE1RsPdmYPvF2gZQ5Gut7XNG3sJo4ZjT79/cvPR0/2LniL+ill4dVWjm0tJV5SXEmSrbsURiW7fs9G6KisZBZKuqbl9ObAJCOIcWJnuvvaQafte3blw3M2ax3XoXOejT7fCqK5G/RIEG7j48GuUPEWJ8buZIjy/uAlfbao394/9CiMadom50LS2fo7sb3TVeMWU8B5CvsfbHaVVLzYcfzNJX9S2bZ0dkLxOQvPwkLnUWsLlAk5i+X8pHFg5+SYQ5pQtzo7cejF8ggy3P11taic0pZ18YoO+CW/PvYyz8HiiVpqD4hOWQKDrtiRdLQVbuNjws4kp+FQP3IOOr3rsQZeslw5/sRPKYUmHg1gT+n8tJpfH3uqyD+3Qinc78LLcJ4q0FEkEtVZk/aIXE4xYdei04pPTTzb1S3oevisT8uEGxQfO5sLYZHYQ8InhEJWRj3dEJ/Cj0jVHDI/cBQTdqueCO4+dbarS6ocnlralpILfWOEjx2ft18wdrw9MkxnIUtknqhoDI7DEAMLm5cSKS7sqX64GXb9uV6PgW654zWxNXplFPIGgSl2zkx/Udi5CScYdSLGX1tV1mFjkBJNI2rwiA97xKtivExE2L5L0rAgHsPX+OAD2NnExwvFnr2jp11Y52FLJX5l7NyAefkAm6HwIMrGx4jdzkLCBe+9sAcvq6Qz+mx5Bcd5Ok8twG5wuC8Geyp7IZJUvi125qPBfJBJLohTjdIvFoCKEXtK0bkDvI0dMrem0S1eZD1MRs6kUlMHsfPeZbEg7CFRVV83IckugJiYO5FckHEjOft1AooTu5NNmpxhw/VTJ4ISkkoySsZoyLyqUILJcErUcywMu1XrTYil39qPNMJT4QDtNvuAzBQuuk3lwHkGtcYtmFdBQV77MEa1FpvDwN8lYV+Szb8foz33cI2bGVMO3gdhTxl21nLYUuk3FIhjR/014mWfxTdv6fxClfOICBpUA9VC9GRmYT66Vq0QzDoy4PvUOZCdJKSg0W9mhmkVtBLnFcH2O11rhbzejydNsJHTRxZ79/Wu1hyQ+Wa6/Rj++4VbmREZDyqf7wV1wcVe3gEFryPn3N2LNn7N60mnfRE1t0LavAO33SPietlDWESkWeHUQs8vaBHRxmO9OfLOv4ycF4Lr/bGmGTG/0lux75Rz6ifaoaJpueaolqkVnNeRc+pYD77tej0EpuhrtgOqlnd3D9vtznan86Z9vbHbFfHekdALucki8DvMfo9EX0XZGBLfJ0qUKFGiRIkSsfofuWcRzBZsHkEAAAAASUVORK5CYII=;" parent="1" vertex="1">
          <mxGeometry x="-1470" y="-231" width="200.8" height="40" as="geometry" />
        </mxCell>
        <mxCell id="JV3lPVtwwYOyOROeYEyi-1" value="&lt;p style=&quot;line-height: 100%; font-size: 9px;&quot;&gt;&lt;font style=&quot;font-size: 9px;&quot;&gt;&lt;br style=&quot;font-size: 9px;&quot;&gt;&lt;br style=&quot;font-size: 9px;&quot;&gt;&lt;br&gt;&lt;/font&gt;&lt;/p&gt;&lt;p style=&quot;line-height: 100%; font-size: 9px;&quot;&gt;&lt;font style=&quot;font-size: 9px;&quot;&gt;comma separated&lt;br style=&quot;font-size: 9px;&quot;&gt;files&lt;br style=&quot;font-size: 9px;&quot;&gt;&lt;/font&gt;&lt;/p&gt;" style="shape=note;whiteSpace=wrap;html=1;backgroundOutline=1;darkOpacity=0.05;strokeColor=#006633;strokeWidth=3;fontSize=9;" vertex="1" parent="1">
          <mxGeometry x="-1600" y="-315" width="60" height="70" as="geometry" />
        </mxCell>
      </root>
    </mxGraphModel>
  </diagram>
</mxfile>
